<svg width="448" height="448" viewBox="0 0 448 448" fill="none" xmlns="http://www.w3.org/2000/svg">
<path fill-rule="evenodd" clip-rule="evenodd" d="M122.455 2.455C120.02 4.889 120 5.064 120 24C120 42.936 120.02 43.111 122.455 45.545C124.002 47.093 126.052 48 128 48C129.948 48 131.998 47.093 133.545 45.545C135.98 43.111 136 42.936 136 24C136 5.064 135.98 4.889 133.545 2.455C131.998 0.907002 129.948 0 128 0C126.052 0 124.002 0.907002 122.455 2.455ZM37.923 37.923C32.782 43.065 33.899 45.363 48.768 60.232C63.637 75.101 65.935 76.218 71.077 71.077C76.218 65.935 75.101 63.637 60.232 48.768C45.363 33.899 43.065 32.782 37.923 37.923ZM209.5 35.978C208.4 36.447 201.997 42.381 195.271 49.165C180.945 63.616 179.828 65.982 184.923 71.077C190.065 76.218 192.363 75.101 207.232 60.232C222.022 45.442 223.203 43.05 218.194 38.04C215.096 34.943 213.064 34.461 209.5 35.978ZM114 65.555C102.898 67.939 91.636 74.243 82.939 82.939C57.755 108.124 57.74 147.918 82.906 173.002C108.202 198.217 147.953 198.258 172.988 173.094C198.288 147.664 198.288 108.336 172.988 82.906C157.5 67.338 135.638 60.908 114 65.555ZM2.455 122.455C0.907002 124.002 0 126.052 0 128C0 129.948 0.907002 131.998 2.455 133.545C4.889 135.98 5.064 136 24 136C42.936 136 43.111 135.98 45.545 133.545C47.093 131.998 48 129.948 48 128C48 126.052 47.093 124.002 45.545 122.455C43.111 120.02 42.936 120 24 120C5.064 120 4.889 120.02 2.455 122.455ZM210.455 122.455C208.907 124.002 208 126.052 208 128C208 129.948 208.907 131.998 210.455 133.545C212.889 135.98 213.064 136 232 136C250.936 136 251.111 135.98 253.545 133.545C255.093 131.998 256 129.948 256 128C256 126.052 255.093 124.002 253.545 122.455C251.111 120.02 250.936 120 232 120C213.064 120 212.889 120.02 210.455 122.455ZM281.5 144.659C255.078 147.829 231.881 156.2 210.868 170.148C198.279 178.505 178.484 198.312 170.103 210.936C158.298 228.718 150.264 248.537 146.362 269.5C143.789 283.322 143.792 308.716 146.37 322.5C152.278 354.1 165.851 379.934 188.446 402.584C206.67 420.854 225.047 432.469 247.477 439.895C293.009 454.97 341.063 448.491 381.064 421.885C392.716 414.135 412.355 394.828 420.493 383.123C432.38 366.025 441.57 343.909 445.686 322.5C448.159 309.63 448.132 282.878 445.63 269.5C439.667 237.607 426.153 212.026 403.066 188.928C377.498 163.347 348.734 149.32 313.026 145.02C305.039 144.059 288.124 143.865 281.5 144.659ZM353.593 172.93C389.74 189.87 417.501 223.114 427.439 261.36C433.86 286.073 433.024 315.892 425.292 338L423.369 343.5L388.975 343.763L354.581 344.027L330.52 328.013C313.429 316.639 305.628 312 303.59 312C301.305 312 298.701 313.984 290.823 321.724C285.38 327.072 280.662 332.499 280.339 333.784C279.978 335.222 282.713 346.489 287.446 363.067L295.139 390.013L278.582 408.906L262.026 427.798L255.763 425.854C208.086 411.055 172.182 370.84 162.314 321.182C160.443 311.771 159.847 285.325 161.311 276.75L162.123 272H184.327H206.531L242.5 284C262.283 290.6 279.509 296 280.78 296C282.051 296 284.195 294.895 285.545 293.545C287.986 291.105 288 290.976 288 271.344V251.598L300 239.46L312 227.322L312.021 211.411L312.042 195.5L327.267 182.25C335.641 174.963 343.102 169 343.849 169C344.595 169 348.98 170.769 353.593 172.93ZM62.5 182.978C61.4 183.447 54.997 189.381 48.271 196.165C33.945 210.616 32.828 212.982 37.923 218.077C42.987 223.141 45.42 222.021 59.32 208.228C75.096 192.574 76.314 190.16 71.077 184.923C68.09 181.936 66.039 181.471 62.5 182.978ZM122.455 210.455C120.02 212.889 120 213.064 120 232C120 250.936 120.02 251.111 122.455 253.545C124.002 255.093 126.052 256 128 256C129.948 256 131.998 255.093 133.545 253.545C135.98 251.111 136 250.936 136 232C136 213.064 135.98 212.889 133.545 210.455C131.998 208.907 129.948 208 128 208C126.052 208 124.002 208.907 122.455 210.455ZM384.5 225.208C379.434 228.113 378.715 232.644 382.447 238.137C385.981 243.337 392.475 256.644 394.452 262.737C397.219 271.26 402.923 274.208 408.365 269.927C412.824 266.42 411.296 258.457 403.001 241.987C394.975 226.05 390.348 221.854 384.5 225.208ZM402.455 290.455C400.907 292.002 400 294.052 400 296C400 297.948 400.907 299.998 402.455 301.545C404.002 303.093 406.052 304 408 304C409.948 304 411.998 303.093 413.545 301.545C415.093 299.998 416 297.948 416 296C416 294.052 415.093 292.002 413.545 290.455C411.998 288.907 409.948 288 408 288C406.052 288 404.002 288.907 402.455 290.455ZM119.511 330.17C116.938 332.194 116.79 332.713 117.303 337.92C118 344.997 122.902 359.719 128.696 372.133C133.218 381.822 135.309 384 140.093 384C142.814 384 147 379.616 147 376.767C147 375.489 144.977 369.846 142.504 364.227C140.031 358.607 136.612 349.17 134.907 343.255C130.666 328.539 126.301 324.829 119.511 330.17ZM154.455 402.455C149.494 407.415 153.009 416 160 416C164.111 416 168 412.111 168 408C168 403.889 164.111 400 160 400C158.052 400 156.002 400.907 154.455 402.455Z" fill="black"/>
</svg>
